<?xml version="1.0" encoding="UTF-8" standalone="no"?>
<!DOCTYPE svg PUBLIC "-//W3C//DTD SVG 1.1//EN" "http://www.w3.org/Graphics/SVG/1.1/DTD/svg11.dtd">
<svg width="267px" height="534px" version="1.1" xmlns="http://www.w3.org/2000/svg" xmlns:xlink="http://www.w3.org/1999/xlink" xml:space="preserve" xmlns:serif="http://www.serif.com/" style="fill-rule:evenodd;clip-rule:evenodd;stroke-linejoin:round;stroke-miterlimit:2;">
    <g transform="matrix(4.166667,0,0,4.166667,172.833333,-1533.333333)">
        <g transform="matrix(-0.847682,0,-0,-0.847682,445.513377,733.350993)">
            <path d="M536.75,280C536.75,280 574.5,359.275 574.5,393.25C574.5,414.085 557.585,431 536.75,431C515.915,431 499,414.085 499,393.25C499,359.275 536.75,280 536.75,280ZM536.5,424C554.161,424 568.5,411.006 568.5,395C568.5,378.994 554.161,366 536.5,366C518.839,366 504.5,378.994 504.5,395C504.5,411.006 518.839,424 536.5,424Z" style="fill:rgb(201,171,129);"/>
        </g>
    </g>
</svg>
